<mxfile host="app.diagrams.net" agent="Mozilla/5.0 (Windows NT 10.0; Win64; x64; rv:139.0) Gecko/20100101 Firefox/139.0" version="27.1.4">
  <diagram name="Page-1" id="bbQdOZV3DKhOyBigHDSG">
    <mxGraphModel dx="1042" dy="535" grid="1" gridSize="10" guides="1" tooltips="1" connect="1" arrows="1" fold="1" page="1" pageScale="1" pageWidth="850" pageHeight="1100" math="0" shadow="0">
      <root>
        <mxCell id="0" />
        <mxCell id="1" parent="0" />
        <mxCell id="3zEiV_4oVuekTxvdoAyt-1" value="&lt;font style=&quot;font-size: 18px;&quot;&gt;Solar panels&lt;/font&gt;" style="rounded=1;whiteSpace=wrap;html=1;" vertex="1" parent="1">
          <mxGeometry x="10" y="40" width="120" height="80" as="geometry" />
        </mxCell>
        <mxCell id="3zEiV_4oVuekTxvdoAyt-2" value="&lt;font style=&quot;font-size: 18px;&quot;&gt;DC-DC boost topologies&lt;/font&gt;" style="rounded=1;whiteSpace=wrap;html=1;" vertex="1" parent="1">
          <mxGeometry x="210" y="20" width="120" height="120" as="geometry" />
        </mxCell>
        <mxCell id="3zEiV_4oVuekTxvdoAyt-3" value="&lt;font style=&quot;font-size: 18px;&quot;&gt;Energy storage&lt;/font&gt;" style="rounded=1;whiteSpace=wrap;html=1;" vertex="1" parent="1">
          <mxGeometry x="210" y="250" width="120" height="60" as="geometry" />
        </mxCell>
        <mxCell id="3zEiV_4oVuekTxvdoAyt-4" value="&lt;font style=&quot;font-size: 18px;&quot;&gt;Inverter topologies&lt;/font&gt;" style="rounded=1;whiteSpace=wrap;html=1;" vertex="1" parent="1">
          <mxGeometry x="410" y="30" width="130" height="100" as="geometry" />
        </mxCell>
        <mxCell id="3zEiV_4oVuekTxvdoAyt-6" value="&lt;font style=&quot;font-size: 18px;&quot;&gt;Grid endpoint&lt;/font&gt;" style="rounded=1;whiteSpace=wrap;html=1;" vertex="1" parent="1">
          <mxGeometry x="650" y="40" width="160" height="80" as="geometry" />
        </mxCell>
        <mxCell id="3zEiV_4oVuekTxvdoAyt-7" value="" style="endArrow=classic;html=1;rounded=0;exitX=1;exitY=0.5;exitDx=0;exitDy=0;entryX=0;entryY=0.5;entryDx=0;entryDy=0;" edge="1" parent="1" source="3zEiV_4oVuekTxvdoAyt-1" target="3zEiV_4oVuekTxvdoAyt-2">
          <mxGeometry width="50" height="50" relative="1" as="geometry">
            <mxPoint x="90" y="240" as="sourcePoint" />
            <mxPoint x="140" y="190" as="targetPoint" />
          </mxGeometry>
        </mxCell>
        <mxCell id="3zEiV_4oVuekTxvdoAyt-18" value="&lt;div&gt;DC source to&lt;/div&gt;&lt;div&gt;be converted&lt;/div&gt;" style="edgeLabel;html=1;align=center;verticalAlign=middle;resizable=0;points=[];" vertex="1" connectable="0" parent="3zEiV_4oVuekTxvdoAyt-7">
          <mxGeometry x="0.125" relative="1" as="geometry">
            <mxPoint x="-5" y="-20" as="offset" />
          </mxGeometry>
        </mxCell>
        <mxCell id="3zEiV_4oVuekTxvdoAyt-9" value="&lt;font style=&quot;font-size: 18px;&quot;&gt;DC loads&lt;/font&gt;" style="rounded=1;whiteSpace=wrap;html=1;" vertex="1" parent="1">
          <mxGeometry x="197.5" y="380" width="145" height="70" as="geometry" />
        </mxCell>
        <mxCell id="3zEiV_4oVuekTxvdoAyt-10" value="&lt;font style=&quot;font-size: 19px;&quot;&gt;AC loads&lt;/font&gt;" style="rounded=1;whiteSpace=wrap;html=1;" vertex="1" parent="1">
          <mxGeometry x="405" y="200" width="140" height="80" as="geometry" />
        </mxCell>
        <mxCell id="3zEiV_4oVuekTxvdoAyt-11" value="" style="endArrow=classic;html=1;rounded=0;exitX=0.25;exitY=1;exitDx=0;exitDy=0;entryX=0.25;entryY=0;entryDx=0;entryDy=0;" edge="1" parent="1" source="3zEiV_4oVuekTxvdoAyt-2" target="3zEiV_4oVuekTxvdoAyt-3">
          <mxGeometry width="50" height="50" relative="1" as="geometry">
            <mxPoint x="90" y="250" as="sourcePoint" />
            <mxPoint x="140" y="200" as="targetPoint" />
          </mxGeometry>
        </mxCell>
        <mxCell id="3zEiV_4oVuekTxvdoAyt-19" value="&lt;div&gt;Stores energy when&lt;/div&gt;&lt;div&gt;surplus exists&lt;/div&gt;" style="edgeLabel;html=1;align=center;verticalAlign=middle;resizable=0;points=[];" vertex="1" connectable="0" parent="3zEiV_4oVuekTxvdoAyt-11">
          <mxGeometry x="-0.0909" relative="1" as="geometry">
            <mxPoint x="-60" as="offset" />
          </mxGeometry>
        </mxCell>
        <mxCell id="3zEiV_4oVuekTxvdoAyt-12" value="" style="endArrow=classic;html=1;rounded=0;exitX=0.75;exitY=0;exitDx=0;exitDy=0;entryX=0.75;entryY=1;entryDx=0;entryDy=0;" edge="1" parent="1" source="3zEiV_4oVuekTxvdoAyt-3" target="3zEiV_4oVuekTxvdoAyt-2">
          <mxGeometry width="50" height="50" relative="1" as="geometry">
            <mxPoint x="340" y="240" as="sourcePoint" />
            <mxPoint x="390" y="190" as="targetPoint" />
          </mxGeometry>
        </mxCell>
        <mxCell id="3zEiV_4oVuekTxvdoAyt-20" value="&lt;div&gt;Supplies the grid&lt;/div&gt;&lt;div&gt;to compensate&lt;/div&gt;" style="edgeLabel;html=1;align=center;verticalAlign=middle;resizable=0;points=[];" vertex="1" connectable="0" parent="3zEiV_4oVuekTxvdoAyt-12">
          <mxGeometry x="0.0545" y="-2" relative="1" as="geometry">
            <mxPoint x="48" y="-2" as="offset" />
          </mxGeometry>
        </mxCell>
        <mxCell id="3zEiV_4oVuekTxvdoAyt-14" value="" style="endArrow=classic;html=1;rounded=0;exitX=1;exitY=0.5;exitDx=0;exitDy=0;entryX=0;entryY=0.5;entryDx=0;entryDy=0;" edge="1" parent="1" source="3zEiV_4oVuekTxvdoAyt-2" target="3zEiV_4oVuekTxvdoAyt-4">
          <mxGeometry width="50" height="50" relative="1" as="geometry">
            <mxPoint x="480" y="190" as="sourcePoint" />
            <mxPoint x="530" y="140" as="targetPoint" />
          </mxGeometry>
        </mxCell>
        <mxCell id="3zEiV_4oVuekTxvdoAyt-23" value="&lt;div&gt;DC voltage&lt;/div&gt;&lt;div&gt;stabilization&lt;/div&gt;" style="edgeLabel;html=1;align=center;verticalAlign=middle;resizable=0;points=[];" vertex="1" connectable="0" parent="3zEiV_4oVuekTxvdoAyt-14">
          <mxGeometry x="0.05" y="-1" relative="1" as="geometry">
            <mxPoint x="-2" y="-21" as="offset" />
          </mxGeometry>
        </mxCell>
        <mxCell id="3zEiV_4oVuekTxvdoAyt-15" value="" style="endArrow=classic;html=1;rounded=0;exitX=1;exitY=0.5;exitDx=0;exitDy=0;entryX=0;entryY=0.5;entryDx=0;entryDy=0;" edge="1" parent="1" source="3zEiV_4oVuekTxvdoAyt-4" target="3zEiV_4oVuekTxvdoAyt-6">
          <mxGeometry width="50" height="50" relative="1" as="geometry">
            <mxPoint x="690" y="270" as="sourcePoint" />
            <mxPoint x="740" y="220" as="targetPoint" />
          </mxGeometry>
        </mxCell>
        <mxCell id="3zEiV_4oVuekTxvdoAyt-24" value="&lt;div&gt;Injects power&lt;/div&gt;&lt;div&gt;into supply grid&lt;/div&gt;" style="edgeLabel;html=1;align=center;verticalAlign=middle;resizable=0;points=[];" vertex="1" connectable="0" parent="3zEiV_4oVuekTxvdoAyt-15">
          <mxGeometry x="-0.1091" relative="1" as="geometry">
            <mxPoint y="-20" as="offset" />
          </mxGeometry>
        </mxCell>
        <mxCell id="3zEiV_4oVuekTxvdoAyt-16" value="" style="endArrow=classic;html=1;rounded=0;exitX=0.5;exitY=1;exitDx=0;exitDy=0;entryX=0.5;entryY=0;entryDx=0;entryDy=0;" edge="1" parent="1" source="3zEiV_4oVuekTxvdoAyt-3" target="3zEiV_4oVuekTxvdoAyt-9">
          <mxGeometry width="50" height="50" relative="1" as="geometry">
            <mxPoint x="460" y="390" as="sourcePoint" />
            <mxPoint x="510" y="340" as="targetPoint" />
          </mxGeometry>
        </mxCell>
        <mxCell id="3zEiV_4oVuekTxvdoAyt-21" value="&lt;div&gt;Powers internal&lt;/div&gt;&lt;div&gt;system loads&lt;/div&gt;" style="edgeLabel;html=1;align=center;verticalAlign=middle;resizable=0;points=[];" vertex="1" connectable="0" parent="3zEiV_4oVuekTxvdoAyt-16">
          <mxGeometry x="0.0857" y="3" relative="1" as="geometry">
            <mxPoint x="37" as="offset" />
          </mxGeometry>
        </mxCell>
        <mxCell id="3zEiV_4oVuekTxvdoAyt-17" value="" style="endArrow=classic;html=1;rounded=0;exitX=0.5;exitY=1;exitDx=0;exitDy=0;entryX=0.5;entryY=0;entryDx=0;entryDy=0;" edge="1" parent="1" source="3zEiV_4oVuekTxvdoAyt-4" target="3zEiV_4oVuekTxvdoAyt-10">
          <mxGeometry width="50" height="50" relative="1" as="geometry">
            <mxPoint x="570" y="360" as="sourcePoint" />
            <mxPoint x="620" y="310" as="targetPoint" />
          </mxGeometry>
        </mxCell>
        <mxCell id="3zEiV_4oVuekTxvdoAyt-22" value="&lt;div&gt;Powers internal&lt;/div&gt;&lt;div&gt;system loads&lt;/div&gt;" style="edgeLabel;html=1;align=center;verticalAlign=middle;resizable=0;points=[];" vertex="1" connectable="0" parent="3zEiV_4oVuekTxvdoAyt-17">
          <mxGeometry x="0.0286" y="6" relative="1" as="geometry">
            <mxPoint x="39" as="offset" />
          </mxGeometry>
        </mxCell>
      </root>
    </mxGraphModel>
  </diagram>
</mxfile>
